<mxfile host="app.diagrams.net" agent="Mozilla/5.0 (Windows NT 10.0; Win64; x64) AppleWebKit/537.36 (KHTML, like Gecko) Chrome/131.0.0.0 Safari/537.36" version="26.0.14">
  <diagram name="Sida-1" id="bpndJ_E99A24D7XNAE1G">
    <mxGraphModel grid="0" page="0" gridSize="10" guides="1" tooltips="1" connect="1" arrows="1" fold="1" pageScale="1" pageWidth="827" pageHeight="1169" math="0" shadow="0">
      <root>
        <mxCell id="0" />
        <mxCell id="1" parent="0" />
        <mxCell id="Po0la7zsFNmtlZeSZE76-1" value="Cars" style="swimlane;fontStyle=1;align=center;verticalAlign=top;childLayout=stackLayout;horizontal=1;startSize=26;horizontalStack=0;resizeParent=1;resizeParentMax=0;resizeLast=0;collapsible=1;marginBottom=0;whiteSpace=wrap;html=1;" vertex="1" parent="1">
          <mxGeometry x="98" y="281" width="195" height="246" as="geometry" />
        </mxCell>
        <mxCell id="Po0la7zsFNmtlZeSZE76-2" value="- position: Point&lt;div&gt;- direction: Direction&lt;/div&gt;&lt;div&gt;- currentSpeed: double&lt;/div&gt;&lt;div&gt;- enginePower: double&lt;/div&gt;" style="text;strokeColor=none;fillColor=none;align=left;verticalAlign=top;spacingLeft=4;spacingRight=4;overflow=hidden;rotatable=0;points=[[0,0.5],[1,0.5]];portConstraint=eastwest;whiteSpace=wrap;html=1;" vertex="1" parent="Po0la7zsFNmtlZeSZE76-1">
          <mxGeometry y="26" width="195" height="66" as="geometry" />
        </mxCell>
        <mxCell id="Po0la7zsFNmtlZeSZE76-3" value="" style="line;strokeWidth=1;fillColor=none;align=left;verticalAlign=middle;spacingTop=-1;spacingLeft=3;spacingRight=3;rotatable=0;labelPosition=right;points=[];portConstraint=eastwest;strokeColor=inherit;" vertex="1" parent="Po0la7zsFNmtlZeSZE76-1">
          <mxGeometry y="92" width="195" height="8" as="geometry" />
        </mxCell>
        <mxCell id="Po0la7zsFNmtlZeSZE76-4" value="+ setPosition(Point): void&lt;div&gt;+ getPosition(): Point&lt;/div&gt;&lt;div&gt;+ startEngine(): void&lt;/div&gt;&lt;div&gt;+ stopEngine(): void&lt;/div&gt;&lt;div&gt;+ gas(double): void&lt;/div&gt;&lt;div&gt;+ brake(double): void&lt;/div&gt;&lt;div&gt;+ move(): void&lt;/div&gt;&lt;div&gt;+ turnLeft(): void&lt;/div&gt;&lt;div&gt;+ turnRight(): void&lt;/div&gt;&lt;div&gt;&lt;br&gt;&lt;/div&gt;&lt;div&gt;&lt;div&gt;&lt;br&gt;&lt;/div&gt;&lt;div&gt;&lt;br&gt;&lt;/div&gt;&lt;div&gt;&lt;br&gt;&lt;/div&gt;&lt;/div&gt;" style="text;strokeColor=none;fillColor=none;align=left;verticalAlign=top;spacingLeft=4;spacingRight=4;overflow=hidden;rotatable=0;points=[[0,0.5],[1,0.5]];portConstraint=eastwest;whiteSpace=wrap;html=1;" vertex="1" parent="Po0la7zsFNmtlZeSZE76-1">
          <mxGeometry y="100" width="195" height="146" as="geometry" />
        </mxCell>
        <mxCell id="K9HIL502Y1lgaBaczekw-2" value="«interface»&lt;br&gt;&lt;b&gt;Movable&lt;/b&gt;" style="swimlane;fontStyle=0;childLayout=stackLayout;horizontal=1;startSize=54;fillColor=none;horizontalStack=0;resizeParent=1;resizeParentMax=0;resizeLast=0;collapsible=1;marginBottom=0;whiteSpace=wrap;html=1;" vertex="1" parent="1">
          <mxGeometry x="184" y="62" width="140" height="132" as="geometry" />
        </mxCell>
        <mxCell id="K9HIL502Y1lgaBaczekw-3" value="+ move(): void" style="text;strokeColor=none;fillColor=none;align=left;verticalAlign=top;spacingLeft=4;spacingRight=4;overflow=hidden;rotatable=0;points=[[0,0.5],[1,0.5]];portConstraint=eastwest;whiteSpace=wrap;html=1;" vertex="1" parent="K9HIL502Y1lgaBaczekw-2">
          <mxGeometry y="54" width="140" height="26" as="geometry" />
        </mxCell>
        <mxCell id="K9HIL502Y1lgaBaczekw-4" value="+ turnLeft(): void" style="text;strokeColor=none;fillColor=none;align=left;verticalAlign=top;spacingLeft=4;spacingRight=4;overflow=hidden;rotatable=0;points=[[0,0.5],[1,0.5]];portConstraint=eastwest;whiteSpace=wrap;html=1;" vertex="1" parent="K9HIL502Y1lgaBaczekw-2">
          <mxGeometry y="80" width="140" height="26" as="geometry" />
        </mxCell>
        <mxCell id="K9HIL502Y1lgaBaczekw-5" value="+ turnRight(): void" style="text;strokeColor=none;fillColor=none;align=left;verticalAlign=top;spacingLeft=4;spacingRight=4;overflow=hidden;rotatable=0;points=[[0,0.5],[1,0.5]];portConstraint=eastwest;whiteSpace=wrap;html=1;" vertex="1" parent="K9HIL502Y1lgaBaczekw-2">
          <mxGeometry y="106" width="140" height="26" as="geometry" />
        </mxCell>
        <mxCell id="K9HIL502Y1lgaBaczekw-6" value="" style="endArrow=block;dashed=1;endFill=0;endSize=12;html=1;rounded=0;fontSize=12;curved=1;entryX=0.55;entryY=1.192;entryDx=0;entryDy=0;entryPerimeter=0;exitX=0.5;exitY=0;exitDx=0;exitDy=0;" edge="1" parent="1" source="Po0la7zsFNmtlZeSZE76-1" target="K9HIL502Y1lgaBaczekw-5">
          <mxGeometry width="160" relative="1" as="geometry">
            <mxPoint x="226" y="313" as="sourcePoint" />
            <mxPoint x="218" y="184" as="targetPoint" />
          </mxGeometry>
        </mxCell>
        <mxCell id="K9HIL502Y1lgaBaczekw-8" value="Volvo240" style="swimlane;fontStyle=1;align=center;verticalAlign=top;childLayout=stackLayout;horizontal=1;startSize=26;horizontalStack=0;resizeParent=1;resizeParentMax=0;resizeLast=0;collapsible=1;marginBottom=0;whiteSpace=wrap;html=1;" vertex="1" parent="1">
          <mxGeometry x="-95" y="643" width="160" height="86" as="geometry" />
        </mxCell>
        <mxCell id="K9HIL502Y1lgaBaczekw-9" value="- &lt;u&gt;trimFactor: double&lt;/u&gt;" style="text;strokeColor=none;fillColor=none;align=left;verticalAlign=top;spacingLeft=4;spacingRight=4;overflow=hidden;rotatable=0;points=[[0,0.5],[1,0.5]];portConstraint=eastwest;whiteSpace=wrap;html=1;" vertex="1" parent="K9HIL502Y1lgaBaczekw-8">
          <mxGeometry y="26" width="160" height="26" as="geometry" />
        </mxCell>
        <mxCell id="K9HIL502Y1lgaBaczekw-10" value="" style="line;strokeWidth=1;fillColor=none;align=left;verticalAlign=middle;spacingTop=-1;spacingLeft=3;spacingRight=3;rotatable=0;labelPosition=right;points=[];portConstraint=eastwest;strokeColor=inherit;" vertex="1" parent="K9HIL502Y1lgaBaczekw-8">
          <mxGeometry y="52" width="160" height="8" as="geometry" />
        </mxCell>
        <mxCell id="K9HIL502Y1lgaBaczekw-11" value="# speedFactor(): double" style="text;strokeColor=none;fillColor=none;align=left;verticalAlign=top;spacingLeft=4;spacingRight=4;overflow=hidden;rotatable=0;points=[[0,0.5],[1,0.5]];portConstraint=eastwest;whiteSpace=wrap;html=1;" vertex="1" parent="K9HIL502Y1lgaBaczekw-8">
          <mxGeometry y="60" width="160" height="26" as="geometry" />
        </mxCell>
        <mxCell id="K9HIL502Y1lgaBaczekw-13" value="Saab95&lt;div&gt;&lt;br&gt;&lt;/div&gt;" style="swimlane;fontStyle=1;align=center;verticalAlign=top;childLayout=stackLayout;horizontal=1;startSize=26;horizontalStack=0;resizeParent=1;resizeParentMax=0;resizeLast=0;collapsible=1;marginBottom=0;whiteSpace=wrap;html=1;" vertex="1" parent="1">
          <mxGeometry x="93" y="635" width="160" height="143" as="geometry" />
        </mxCell>
        <mxCell id="K9HIL502Y1lgaBaczekw-14" value="- turboOn: boolean" style="text;strokeColor=none;fillColor=none;align=left;verticalAlign=top;spacingLeft=4;spacingRight=4;overflow=hidden;rotatable=0;points=[[0,0.5],[1,0.5]];portConstraint=eastwest;whiteSpace=wrap;html=1;" vertex="1" parent="K9HIL502Y1lgaBaczekw-13">
          <mxGeometry y="26" width="160" height="26" as="geometry" />
        </mxCell>
        <mxCell id="K9HIL502Y1lgaBaczekw-15" value="" style="line;strokeWidth=1;fillColor=none;align=left;verticalAlign=middle;spacingTop=-1;spacingLeft=3;spacingRight=3;rotatable=0;labelPosition=right;points=[];portConstraint=eastwest;strokeColor=inherit;" vertex="1" parent="K9HIL502Y1lgaBaczekw-13">
          <mxGeometry y="52" width="160" height="8" as="geometry" />
        </mxCell>
        <mxCell id="K9HIL502Y1lgaBaczekw-16" value="+ setTurboOn(): void&lt;div&gt;+ setTurboOff(): void&lt;/div&gt;&lt;div&gt;# speedFactor(): double&lt;/div&gt;" style="text;strokeColor=none;fillColor=none;align=left;verticalAlign=top;spacingLeft=4;spacingRight=4;overflow=hidden;rotatable=0;points=[[0,0.5],[1,0.5]];portConstraint=eastwest;whiteSpace=wrap;html=1;" vertex="1" parent="K9HIL502Y1lgaBaczekw-13">
          <mxGeometry y="60" width="160" height="83" as="geometry" />
        </mxCell>
        <mxCell id="K9HIL502Y1lgaBaczekw-17" value="Scania" style="swimlane;fontStyle=1;align=center;verticalAlign=top;childLayout=stackLayout;horizontal=1;startSize=26;horizontalStack=0;resizeParent=1;resizeParentMax=0;resizeLast=0;collapsible=1;marginBottom=0;whiteSpace=wrap;html=1;" vertex="1" parent="1">
          <mxGeometry x="303" y="626" width="160" height="105" as="geometry" />
        </mxCell>
        <mxCell id="K9HIL502Y1lgaBaczekw-18" value="- flatbedAngle: int" style="text;strokeColor=none;fillColor=none;align=left;verticalAlign=top;spacingLeft=4;spacingRight=4;overflow=hidden;rotatable=0;points=[[0,0.5],[1,0.5]];portConstraint=eastwest;whiteSpace=wrap;html=1;" vertex="1" parent="K9HIL502Y1lgaBaczekw-17">
          <mxGeometry y="26" width="160" height="26" as="geometry" />
        </mxCell>
        <mxCell id="K9HIL502Y1lgaBaczekw-19" value="" style="line;strokeWidth=1;fillColor=none;align=left;verticalAlign=middle;spacingTop=-1;spacingLeft=3;spacingRight=3;rotatable=0;labelPosition=right;points=[];portConstraint=eastwest;strokeColor=inherit;" vertex="1" parent="K9HIL502Y1lgaBaczekw-17">
          <mxGeometry y="52" width="160" height="8" as="geometry" />
        </mxCell>
        <mxCell id="K9HIL502Y1lgaBaczekw-20" value="+ raiseRamp(): void&lt;div&gt;+ lowerRamp(): void&lt;/div&gt;" style="text;strokeColor=none;fillColor=none;align=left;verticalAlign=top;spacingLeft=4;spacingRight=4;overflow=hidden;rotatable=0;points=[[0,0.5],[1,0.5]];portConstraint=eastwest;whiteSpace=wrap;html=1;" vertex="1" parent="K9HIL502Y1lgaBaczekw-17">
          <mxGeometry y="60" width="160" height="45" as="geometry" />
        </mxCell>
        <mxCell id="K9HIL502Y1lgaBaczekw-22" value="Extends" style="endArrow=block;endSize=16;endFill=0;html=1;rounded=0;fontSize=12;curved=1;exitX=0.5;exitY=0;exitDx=0;exitDy=0;entryX=0.467;entryY=1;entryDx=0;entryDy=0;entryPerimeter=0;" edge="1" parent="1" source="K9HIL502Y1lgaBaczekw-13" target="Po0la7zsFNmtlZeSZE76-4">
          <mxGeometry width="160" relative="1" as="geometry">
            <mxPoint x="48" y="396" as="sourcePoint" />
            <mxPoint x="208" y="396" as="targetPoint" />
          </mxGeometry>
        </mxCell>
        <mxCell id="K9HIL502Y1lgaBaczekw-23" value="Extends" style="endArrow=block;endSize=16;endFill=0;html=1;rounded=0;fontSize=12;curved=1;entryX=0.749;entryY=1.007;entryDx=0;entryDy=0;entryPerimeter=0;exitX=0.5;exitY=0;exitDx=0;exitDy=0;" edge="1" parent="1" source="K9HIL502Y1lgaBaczekw-17" target="Po0la7zsFNmtlZeSZE76-4">
          <mxGeometry width="160" relative="1" as="geometry">
            <mxPoint x="368" y="637" as="sourcePoint" />
            <mxPoint x="388" y="477" as="targetPoint" />
          </mxGeometry>
        </mxCell>
        <mxCell id="K9HIL502Y1lgaBaczekw-25" value="Extends" style="endArrow=block;endSize=16;endFill=0;html=1;rounded=0;fontSize=12;curved=1;exitX=0.5;exitY=0;exitDx=0;exitDy=0;entryX=0.241;entryY=1.027;entryDx=0;entryDy=0;entryPerimeter=0;" edge="1" parent="1" source="K9HIL502Y1lgaBaczekw-8" target="Po0la7zsFNmtlZeSZE76-4">
          <mxGeometry width="160" relative="1" as="geometry">
            <mxPoint x="-25" y="612" as="sourcePoint" />
            <mxPoint x="-14" y="489" as="targetPoint" />
          </mxGeometry>
        </mxCell>
        <mxCell id="K9HIL502Y1lgaBaczekw-26" value="«interface»&lt;br&gt;&lt;b&gt;HasFlatBed&lt;/b&gt;" style="swimlane;fontStyle=0;childLayout=stackLayout;horizontal=1;startSize=54;fillColor=none;horizontalStack=0;resizeParent=1;resizeParentMax=0;resizeLast=0;collapsible=1;marginBottom=0;whiteSpace=wrap;html=1;" vertex="1" parent="1">
          <mxGeometry x="356" y="474" width="140" height="106" as="geometry" />
        </mxCell>
        <mxCell id="K9HIL502Y1lgaBaczekw-27" value="+ raiseRamp(): void" style="text;strokeColor=none;fillColor=none;align=left;verticalAlign=top;spacingLeft=4;spacingRight=4;overflow=hidden;rotatable=0;points=[[0,0.5],[1,0.5]];portConstraint=eastwest;whiteSpace=wrap;html=1;" vertex="1" parent="K9HIL502Y1lgaBaczekw-26">
          <mxGeometry y="54" width="140" height="26" as="geometry" />
        </mxCell>
        <mxCell id="K9HIL502Y1lgaBaczekw-28" value="+ loerRamp(): void" style="text;strokeColor=none;fillColor=none;align=left;verticalAlign=top;spacingLeft=4;spacingRight=4;overflow=hidden;rotatable=0;points=[[0,0.5],[1,0.5]];portConstraint=eastwest;whiteSpace=wrap;html=1;" vertex="1" parent="K9HIL502Y1lgaBaczekw-26">
          <mxGeometry y="80" width="140" height="26" as="geometry" />
        </mxCell>
        <mxCell id="K9HIL502Y1lgaBaczekw-30" value="" style="endArrow=block;dashed=1;endFill=0;endSize=12;html=1;rounded=0;fontSize=12;curved=1;exitX=0.7;exitY=0.035;exitDx=0;exitDy=0;exitPerimeter=0;" edge="1" parent="1" source="K9HIL502Y1lgaBaczekw-17" target="K9HIL502Y1lgaBaczekw-28">
          <mxGeometry width="160" relative="1" as="geometry">
            <mxPoint x="408" y="396" as="sourcePoint" />
            <mxPoint x="568" y="396" as="targetPoint" />
          </mxGeometry>
        </mxCell>
        <mxCell id="K9HIL502Y1lgaBaczekw-31" value="CarController" style="swimlane;fontStyle=1;align=center;verticalAlign=top;childLayout=stackLayout;horizontal=1;startSize=26;horizontalStack=0;resizeParent=1;resizeParentMax=0;resizeLast=0;collapsible=1;marginBottom=0;whiteSpace=wrap;html=1;" vertex="1" parent="1">
          <mxGeometry x="575" y="680" width="211" height="166" as="geometry" />
        </mxCell>
        <mxCell id="K9HIL502Y1lgaBaczekw-32" value="- delay: int&lt;div&gt;- timer: Timer&lt;/div&gt;&lt;div&gt;&amp;nbsp;frame: CarView&lt;/div&gt;&lt;div&gt;cars: ArrayList&amp;lt;Cars&amp;gt;&lt;/div&gt;" style="text;strokeColor=none;fillColor=none;align=left;verticalAlign=top;spacingLeft=4;spacingRight=4;overflow=hidden;rotatable=0;points=[[0,0.5],[1,0.5]];portConstraint=eastwest;whiteSpace=wrap;html=1;" vertex="1" parent="K9HIL502Y1lgaBaczekw-31">
          <mxGeometry y="26" width="211" height="62" as="geometry" />
        </mxCell>
        <mxCell id="K9HIL502Y1lgaBaczekw-33" value="" style="line;strokeWidth=1;fillColor=none;align=left;verticalAlign=middle;spacingTop=-1;spacingLeft=3;spacingRight=3;rotatable=0;labelPosition=right;points=[];portConstraint=eastwest;strokeColor=inherit;" vertex="1" parent="K9HIL502Y1lgaBaczekw-31">
          <mxGeometry y="88" width="211" height="8" as="geometry" />
        </mxCell>
        <mxCell id="K9HIL502Y1lgaBaczekw-34" value="+ gas(int): void&lt;div&gt;+ brake(int): void&lt;/div&gt;&lt;div&gt;- isCarOutOfBounds(int, int): boolean&lt;/div&gt;" style="text;strokeColor=none;fillColor=none;align=left;verticalAlign=top;spacingLeft=4;spacingRight=4;overflow=hidden;rotatable=0;points=[[0,0.5],[1,0.5]];portConstraint=eastwest;whiteSpace=wrap;html=1;" vertex="1" parent="K9HIL502Y1lgaBaczekw-31">
          <mxGeometry y="96" width="211" height="70" as="geometry" />
        </mxCell>
        <mxCell id="K9HIL502Y1lgaBaczekw-35" value="CarView" style="swimlane;fontStyle=1;align=center;verticalAlign=top;childLayout=stackLayout;horizontal=1;startSize=26;horizontalStack=0;resizeParent=1;resizeParentMax=0;resizeLast=0;collapsible=1;marginBottom=0;whiteSpace=wrap;html=1;" vertex="1" parent="1">
          <mxGeometry x="764" y="470" width="194" height="108" as="geometry" />
        </mxCell>
        <mxCell id="K9HIL502Y1lgaBaczekw-36" value="carC: CarController&lt;div&gt;drawPanel: DrawPanel&lt;/div&gt;" style="text;strokeColor=none;fillColor=none;align=left;verticalAlign=top;spacingLeft=4;spacingRight=4;overflow=hidden;rotatable=0;points=[[0,0.5],[1,0.5]];portConstraint=eastwest;whiteSpace=wrap;html=1;" vertex="1" parent="K9HIL502Y1lgaBaczekw-35">
          <mxGeometry y="26" width="194" height="49" as="geometry" />
        </mxCell>
        <mxCell id="K9HIL502Y1lgaBaczekw-37" value="" style="line;strokeWidth=1;fillColor=none;align=left;verticalAlign=middle;spacingTop=-1;spacingLeft=3;spacingRight=3;rotatable=0;labelPosition=right;points=[];portConstraint=eastwest;strokeColor=inherit;" vertex="1" parent="K9HIL502Y1lgaBaczekw-35">
          <mxGeometry y="75" width="194" height="8" as="geometry" />
        </mxCell>
        <mxCell id="K9HIL502Y1lgaBaczekw-38" value="- initComponents(String): void" style="text;strokeColor=none;fillColor=none;align=left;verticalAlign=top;spacingLeft=4;spacingRight=4;overflow=hidden;rotatable=0;points=[[0,0.5],[1,0.5]];portConstraint=eastwest;whiteSpace=wrap;html=1;" vertex="1" parent="K9HIL502Y1lgaBaczekw-35">
          <mxGeometry y="83" width="194" height="25" as="geometry" />
        </mxCell>
        <mxCell id="K9HIL502Y1lgaBaczekw-39" value="DrawPanel" style="swimlane;fontStyle=1;align=center;verticalAlign=top;childLayout=stackLayout;horizontal=1;startSize=26;horizontalStack=0;resizeParent=1;resizeParentMax=0;resizeLast=0;collapsible=1;marginBottom=0;whiteSpace=wrap;html=1;" vertex="1" parent="1">
          <mxGeometry x="1002" y="514" width="223" height="166" as="geometry" />
        </mxCell>
        <mxCell id="K9HIL502Y1lgaBaczekw-40" value="carImages: List&amp;lt;BufferedImage&amp;gt;&lt;div&gt;carPoints: List&amp;lt;Point&amp;gt;&lt;/div&gt;&lt;div&gt;volvoWorkshopImage: BufferedImage&lt;/div&gt;&lt;div&gt;volvoWorkshopPoint: Point&lt;/div&gt;" style="text;strokeColor=none;fillColor=none;align=left;verticalAlign=top;spacingLeft=4;spacingRight=4;overflow=hidden;rotatable=0;points=[[0,0.5],[1,0.5]];portConstraint=eastwest;whiteSpace=wrap;html=1;" vertex="1" parent="K9HIL502Y1lgaBaczekw-39">
          <mxGeometry y="26" width="223" height="75" as="geometry" />
        </mxCell>
        <mxCell id="K9HIL502Y1lgaBaczekw-41" value="" style="line;strokeWidth=1;fillColor=none;align=left;verticalAlign=middle;spacingTop=-1;spacingLeft=3;spacingRight=3;rotatable=0;labelPosition=right;points=[];portConstraint=eastwest;strokeColor=inherit;" vertex="1" parent="K9HIL502Y1lgaBaczekw-39">
          <mxGeometry y="101" width="223" height="8" as="geometry" />
        </mxCell>
        <mxCell id="K9HIL502Y1lgaBaczekw-42" value="&lt;div&gt;moveit(int, int, int): void&lt;/div&gt;&lt;div&gt;loadCarToWorkshop(): void&lt;/div&gt;# paintComponent(Graphics): void" style="text;strokeColor=none;fillColor=none;align=left;verticalAlign=top;spacingLeft=4;spacingRight=4;overflow=hidden;rotatable=0;points=[[0,0.5],[1,0.5]];portConstraint=eastwest;whiteSpace=wrap;html=1;" vertex="1" parent="K9HIL502Y1lgaBaczekw-39">
          <mxGeometry y="109" width="223" height="57" as="geometry" />
        </mxCell>
        <mxCell id="K9HIL502Y1lgaBaczekw-49" value="&lt;b&gt;JPanel&lt;/b&gt;" style="html=1;whiteSpace=wrap;" vertex="1" parent="1">
          <mxGeometry x="1169" y="233" width="110" height="25" as="geometry" />
        </mxCell>
        <mxCell id="K9HIL502Y1lgaBaczekw-50" value="TimerListener" style="swimlane;fontStyle=1;align=center;verticalAlign=top;childLayout=stackLayout;horizontal=1;startSize=26;horizontalStack=0;resizeParent=1;resizeParentMax=0;resizeLast=0;collapsible=1;marginBottom=0;whiteSpace=wrap;html=1;" vertex="1" parent="1">
          <mxGeometry x="529" y="354" width="249" height="60" as="geometry" />
        </mxCell>
        <mxCell id="K9HIL502Y1lgaBaczekw-53" value="+ actionPerformed(ActionEvent): void" style="text;strokeColor=none;fillColor=none;align=left;verticalAlign=top;spacingLeft=4;spacingRight=4;overflow=hidden;rotatable=0;points=[[0,0.5],[1,0.5]];portConstraint=eastwest;whiteSpace=wrap;html=1;" vertex="1" parent="K9HIL502Y1lgaBaczekw-50">
          <mxGeometry y="26" width="249" height="26" as="geometry" />
        </mxCell>
        <mxCell id="K9HIL502Y1lgaBaczekw-52" value="" style="line;strokeWidth=1;fillColor=none;align=left;verticalAlign=middle;spacingTop=-1;spacingLeft=3;spacingRight=3;rotatable=0;labelPosition=right;points=[];portConstraint=eastwest;strokeColor=inherit;" vertex="1" parent="K9HIL502Y1lgaBaczekw-50">
          <mxGeometry y="52" width="249" height="8" as="geometry" />
        </mxCell>
        <mxCell id="K9HIL502Y1lgaBaczekw-55" value="&lt;b&gt;ActionListener&lt;/b&gt;" style="html=1;whiteSpace=wrap;" vertex="1" parent="1">
          <mxGeometry x="645" y="238" width="110" height="25" as="geometry" />
        </mxCell>
        <mxCell id="K9HIL502Y1lgaBaczekw-56" value="&lt;b&gt;JFrame&lt;/b&gt;" style="html=1;whiteSpace=wrap;" vertex="1" parent="1">
          <mxGeometry x="831" y="242" width="110" height="25" as="geometry" />
        </mxCell>
        <mxCell id="K9HIL502Y1lgaBaczekw-57" value="" style="endArrow=block;dashed=1;endFill=0;endSize=12;html=1;rounded=0;fontSize=12;curved=1;entryX=0.5;entryY=1;entryDx=0;entryDy=0;" edge="1" parent="1" source="K9HIL502Y1lgaBaczekw-50" target="K9HIL502Y1lgaBaczekw-55">
          <mxGeometry width="160" relative="1" as="geometry">
            <mxPoint x="1130" y="270" as="sourcePoint" />
            <mxPoint x="1206" y="191" as="targetPoint" />
          </mxGeometry>
        </mxCell>
        <mxCell id="K9HIL502Y1lgaBaczekw-58" value="Extends" style="endArrow=block;endSize=16;endFill=0;html=1;rounded=0;fontSize=12;curved=1;exitX=0.5;exitY=0;exitDx=0;exitDy=0;entryX=0.618;entryY=1.04;entryDx=0;entryDy=0;entryPerimeter=0;" edge="1" parent="1" source="K9HIL502Y1lgaBaczekw-39" target="K9HIL502Y1lgaBaczekw-49">
          <mxGeometry width="160" relative="1" as="geometry">
            <mxPoint x="834" y="396" as="sourcePoint" />
            <mxPoint x="994" y="396" as="targetPoint" />
          </mxGeometry>
        </mxCell>
        <mxCell id="K9HIL502Y1lgaBaczekw-59" value="Extends" style="endArrow=block;endSize=16;endFill=0;html=1;rounded=0;fontSize=12;curved=1;exitX=0.431;exitY=0.012;exitDx=0;exitDy=0;exitPerimeter=0;entryX=0.5;entryY=1;entryDx=0;entryDy=0;" edge="1" parent="1" source="K9HIL502Y1lgaBaczekw-35" target="K9HIL502Y1lgaBaczekw-56">
          <mxGeometry width="160" relative="1" as="geometry">
            <mxPoint x="883" y="496" as="sourcePoint" />
            <mxPoint x="683" y="358" as="targetPoint" />
          </mxGeometry>
        </mxCell>
        <mxCell id="K9HIL502Y1lgaBaczekw-61" value="" style="endArrow=open;startArrow=circlePlus;endFill=0;startFill=0;endSize=8;html=1;rounded=0;fontSize=12;curved=1;exitX=0.5;exitY=0;exitDx=0;exitDy=0;entryX=0.494;entryY=1.077;entryDx=0;entryDy=0;entryPerimeter=0;" edge="1" parent="1" source="K9HIL502Y1lgaBaczekw-31" target="K9HIL502Y1lgaBaczekw-53">
          <mxGeometry width="160" relative="1" as="geometry">
            <mxPoint x="735" y="467" as="sourcePoint" />
            <mxPoint x="895" y="467" as="targetPoint" />
          </mxGeometry>
        </mxCell>
        <mxCell id="K9HIL502Y1lgaBaczekw-62" value="&lt;b&gt;Graphics&lt;/b&gt;" style="html=1;whiteSpace=wrap;" vertex="1" parent="1">
          <mxGeometry x="1017" y="227" width="110" height="25" as="geometry" />
        </mxCell>
        <mxCell id="K9HIL502Y1lgaBaczekw-63" value="Use" style="endArrow=open;endSize=12;dashed=1;html=1;rounded=0;fontSize=12;curved=1;entryX=0.5;entryY=1;entryDx=0;entryDy=0;exitX=0.131;exitY=0.012;exitDx=0;exitDy=0;exitPerimeter=0;" edge="1" parent="1" source="K9HIL502Y1lgaBaczekw-39" target="K9HIL502Y1lgaBaczekw-62">
          <mxGeometry width="160" relative="1" as="geometry">
            <mxPoint x="834" y="396" as="sourcePoint" />
            <mxPoint x="994" y="396" as="targetPoint" />
          </mxGeometry>
        </mxCell>
        <mxCell id="K9HIL502Y1lgaBaczekw-70" value="Use" style="endArrow=open;endSize=12;dashed=1;html=1;rounded=0;fontSize=12;curved=1;entryX=0.004;entryY=0.187;entryDx=0;entryDy=0;entryPerimeter=0;exitX=0.981;exitY=0.323;exitDx=0;exitDy=0;exitPerimeter=0;" edge="1" parent="1" source="K9HIL502Y1lgaBaczekw-32" target="K9HIL502Y1lgaBaczekw-40">
          <mxGeometry width="160" relative="1" as="geometry">
            <mxPoint x="803" y="702" as="sourcePoint" />
            <mxPoint x="856" y="570" as="targetPoint" />
          </mxGeometry>
        </mxCell>
        <mxCell id="K9HIL502Y1lgaBaczekw-72" value="Use" style="endArrow=open;endSize=12;dashed=1;html=1;rounded=0;fontSize=12;curved=1;entryX=1;entryY=0.181;entryDx=0;entryDy=0;entryPerimeter=0;exitX=0;exitY=0.133;exitDx=0;exitDy=0;exitPerimeter=0;" edge="1" parent="1" source="K9HIL502Y1lgaBaczekw-31" target="K9HIL502Y1lgaBaczekw-17">
          <mxGeometry width="160" relative="1" as="geometry">
            <mxPoint x="432" y="781" as="sourcePoint" />
            <mxPoint x="592" y="781" as="targetPoint" />
          </mxGeometry>
        </mxCell>
        <mxCell id="K9HIL502Y1lgaBaczekw-73" value="Use" style="endArrow=open;endSize=12;dashed=1;html=1;rounded=0;fontSize=12;curved=1;exitX=0;exitY=0.5;exitDx=0;exitDy=0;entryX=1;entryY=0.5;entryDx=0;entryDy=0;" edge="1" parent="1" source="K9HIL502Y1lgaBaczekw-34" target="K9HIL502Y1lgaBaczekw-16">
          <mxGeometry width="160" relative="1" as="geometry">
            <mxPoint x="401" y="764" as="sourcePoint" />
            <mxPoint x="258" y="766" as="targetPoint" />
          </mxGeometry>
        </mxCell>
        <mxCell id="K9HIL502Y1lgaBaczekw-74" value="Use" style="endArrow=open;endSize=12;dashed=1;html=1;rounded=0;fontSize=12;curved=1;entryX=0.513;entryY=1.115;entryDx=0;entryDy=0;entryPerimeter=0;exitX=-0.009;exitY=0.929;exitDx=0;exitDy=0;exitPerimeter=0;" edge="1" parent="1" source="K9HIL502Y1lgaBaczekw-34" target="K9HIL502Y1lgaBaczekw-11">
          <mxGeometry x="-0.0201" y="-19" width="160" relative="1" as="geometry">
            <mxPoint x="590.04" y="783" as="sourcePoint" />
            <mxPoint x="66.00000000000004" y="725.002" as="targetPoint" />
            <Array as="points">
              <mxPoint x="105" y="858" />
            </Array>
            <mxPoint as="offset" />
          </mxGeometry>
        </mxCell>
        <mxCell id="K9HIL502Y1lgaBaczekw-76" value="" style="endArrow=diamondThin;endFill=1;endSize=24;html=1;rounded=0;fontSize=12;curved=1;entryX=1.015;entryY=0.894;entryDx=0;entryDy=0;entryPerimeter=0;exitX=0.109;exitY=0;exitDx=0;exitDy=0;exitPerimeter=0;" edge="1" parent="1" source="K9HIL502Y1lgaBaczekw-31" target="Po0la7zsFNmtlZeSZE76-2">
          <mxGeometry width="160" relative="1" as="geometry">
            <mxPoint x="588" y="674" as="sourcePoint" />
            <mxPoint x="351" y="300.01" as="targetPoint" />
            <Array as="points">
              <mxPoint x="606" y="361" />
            </Array>
          </mxGeometry>
        </mxCell>
        <mxCell id="K9HIL502Y1lgaBaczekw-77" value="" style="endArrow=diamondThin;endFill=1;endSize=24;html=1;rounded=0;fontSize=12;curved=1;exitX=0.64;exitY=0;exitDx=0;exitDy=0;exitPerimeter=0;entryX=0.006;entryY=0.174;entryDx=0;entryDy=0;entryPerimeter=0;" edge="1" parent="1" source="K9HIL502Y1lgaBaczekw-31" target="K9HIL502Y1lgaBaczekw-35">
          <mxGeometry width="160" relative="1" as="geometry">
            <mxPoint x="712" y="671" as="sourcePoint" />
            <mxPoint x="777" y="530" as="targetPoint" />
          </mxGeometry>
        </mxCell>
        <mxCell id="K9HIL502Y1lgaBaczekw-78" value="" style="endArrow=diamondThin;endFill=1;endSize=24;html=1;rounded=0;fontSize=12;curved=1;exitX=0.075;exitY=1.038;exitDx=0;exitDy=0;exitPerimeter=0;entryX=0.886;entryY=0.006;entryDx=0;entryDy=0;entryPerimeter=0;" edge="1" parent="1" source="K9HIL502Y1lgaBaczekw-38" target="K9HIL502Y1lgaBaczekw-31">
          <mxGeometry width="160" relative="1" as="geometry">
            <mxPoint x="720" y="690" as="sourcePoint" />
            <mxPoint x="897" y="761" as="targetPoint" />
          </mxGeometry>
        </mxCell>
        <mxCell id="K9HIL502Y1lgaBaczekw-79" value="&lt;b&gt;CarController.Timer&lt;/b&gt;" style="html=1;whiteSpace=wrap;" vertex="1" parent="1">
          <mxGeometry x="883" y="743" width="110" height="25" as="geometry" />
        </mxCell>
        <mxCell id="K9HIL502Y1lgaBaczekw-80" value="" style="endArrow=diamondThin;endFill=1;endSize=24;html=1;rounded=0;fontSize=12;curved=1;exitX=1.014;exitY=0.677;exitDx=0;exitDy=0;exitPerimeter=0;entryX=0;entryY=0.5;entryDx=0;entryDy=0;" edge="1" parent="1" source="K9HIL502Y1lgaBaczekw-32" target="K9HIL502Y1lgaBaczekw-79">
          <mxGeometry width="160" relative="1" as="geometry">
            <mxPoint x="801" y="849" as="sourcePoint" />
            <mxPoint x="870" y="695" as="targetPoint" />
          </mxGeometry>
        </mxCell>
        <mxCell id="K9HIL502Y1lgaBaczekw-82" value="" style="endArrow=diamondThin;endFill=1;endSize=24;html=1;rounded=0;fontSize=12;curved=1;entryX=1.024;entryY=0.086;entryDx=0;entryDy=0;entryPerimeter=0;exitX=0.173;exitY=1.08;exitDx=0;exitDy=0;exitPerimeter=0;" edge="1" parent="1" source="K9HIL502Y1lgaBaczekw-79" target="K9HIL502Y1lgaBaczekw-34">
          <mxGeometry width="160" relative="1" as="geometry">
            <mxPoint x="525" y="498" as="sourcePoint" />
            <mxPoint x="685" y="498" as="targetPoint" />
          </mxGeometry>
        </mxCell>
        <mxCell id="K9HIL502Y1lgaBaczekw-83" value="" style="endArrow=diamondThin;endFill=1;endSize=24;html=1;rounded=0;fontSize=12;curved=1;exitX=1.031;exitY=0.122;exitDx=0;exitDy=0;exitPerimeter=0;entryX=0.022;entryY=0.027;entryDx=0;entryDy=0;entryPerimeter=0;" edge="1" parent="1" source="K9HIL502Y1lgaBaczekw-36" target="K9HIL502Y1lgaBaczekw-40">
          <mxGeometry width="160" relative="1" as="geometry">
            <mxPoint x="776" y="498" as="sourcePoint" />
            <mxPoint x="936" y="498" as="targetPoint" />
          </mxGeometry>
        </mxCell>
      </root>
    </mxGraphModel>
  </diagram>
</mxfile>
